HIERARCHY
ROOT root
{
	OFFSET	0	13.1	24.9
	CHANNELS 6  Xposition Yposition Zposition Xrotation Yrotation Zrotation
	JOINT spine_1
	{
		OFFSET	0	9.99999	0
		CHANNELS 3  Xrotation Yrotation Zrotation
		JOINT spine_2
		{
			OFFSET	0	112	-10
			CHANNELS 3  Xrotation Yrotation Zrotation
			JOINT spine_3
			{
				OFFSET	0	206.5	19.3
				CHANNELS 3  Xrotation Yrotation Zrotation
				JOINT spine_4
				{
					OFFSET	0	110.4	14.6
					CHANNELS 3  Xrotation Yrotation Zrotation
					JOINT neck_1
					{
						OFFSET	0	71.8	-50.3
						CHANNELS 3  Xrotation Yrotation Zrotation
						JOINT neck_2
						{
							OFFSET	0	86.2	-25.8
							CHANNELS 3  Xrotation Yrotation Zrotation
							JOINT head_ee
							{
								OFFSET	0	179.8	-8.7
								CHANNELS 3  Xrotation Yrotation Zrotation
								End Site
								{
									OFFSET	1	0	0
								}
							}
						}
					}
					JOINT left_clavicle
					{
						OFFSET	-43.2	22.4	-70.8
						CHANNELS 3  Xrotation Yrotation Zrotation
						JOINT left_shoulder
						{
							OFFSET	-93.9	-5.79999	48.7
							CHANNELS 3  Xrotation Yrotation Zrotation
							JOINT left_elbow
							{
								OFFSET	-291.4	-30.8	15.2
								CHANNELS 3  Xrotation Yrotation Zrotation
								JOINT left_lowarm_twist
								{
									OFFSET	-110.7	-3.89999	13.6
									CHANNELS 3  Xrotation Yrotation Zrotation
									JOINT left_hand
									{
										OFFSET	-110.7	-3.89999	13.6
										CHANNELS 3  Xrotation Yrotation Zrotation
										JOINT left_ee
										{
											OFFSET	-80.8	-5.10001	12.1
											CHANNELS 3  Xrotation Yrotation Zrotation
											End Site
											{
												OFFSET	1	0	0
											}
										}
									}
								}
							}
						}
					}
					JOINT right_clavicle
					{
						OFFSET	43.2	22.4	-70.8
						CHANNELS 3  Xrotation Yrotation Zrotation
						JOINT right_shoulder
						{
							OFFSET	93.9	-5.79999	48.7
							CHANNELS 3  Xrotation Yrotation Zrotation
							JOINT right_elbow
							{
								OFFSET	291.4	-30.8	15.2
								CHANNELS 3  Xrotation Yrotation Zrotation
								JOINT right_lowarm_twist
								{
									OFFSET	110.7	-3.89999	13.6
									CHANNELS 3  Xrotation Yrotation Zrotation
									JOINT right_hand
									{
										OFFSET	110.7	-3.89999	13.6
										CHANNELS 3  Xrotation Yrotation Zrotation
										JOINT right_ee
										{
											OFFSET	80.8	-5.10001	12.1
											CHANNELS 3  Xrotation Yrotation Zrotation
											End Site
											{
												OFFSET	1	0	0
											}
										}
									}
								}
							}
						}
					}
				}
			}
		}
	}
	JOINT left_hip
	{
		OFFSET	-82.8	-127.5	0.300001
		CHANNELS 3  Xrotation Yrotation Zrotation
		JOINT left_knee
		{
			OFFSET	-28.2	-396.7	2.2
			CHANNELS 3  Xrotation Yrotation Zrotation
			JOINT left_ankle
			{
				OFFSET	-11.7	-411.3	35.4
				CHANNELS 3  Xrotation Yrotation Zrotation
				JOINT left_toes
				{
					OFFSET	0	-60	-88.6
					CHANNELS 3  Xrotation Yrotation Zrotation
					JOINT left_foot_ee
					{
						OFFSET	-22.5	-16.5	-42.2
						CHANNELS 3  Xrotation Yrotation Zrotation
						End Site
						{
							OFFSET	1	0	0
						}
					}
				}
			}
		}
	}
	JOINT right_hip
	{
		OFFSET	82.8	-127.5	0.300001
		CHANNELS 3  Xrotation Yrotation Zrotation
		JOINT right_knee
		{
			OFFSET	28.2	-396.7	2.2
			CHANNELS 3  Xrotation Yrotation Zrotation
			JOINT right_ankle
			{
				OFFSET	11.7	-411.3	35.4
				CHANNELS 3  Xrotation Yrotation Zrotation
				JOINT right_toes
				{
					OFFSET	0	-60	-88.6
					CHANNELS 3  Xrotation Yrotation Zrotation
					JOINT right_foot_ee
					{
						OFFSET	22.5	-16.5	-42.2
						CHANNELS 3  Xrotation Yrotation Zrotation
						End Site
						{
							OFFSET	1	0	0
						}
					}
				}
			}
		}
	}
}
MOTION
Frames: 11
Frame Time: 0.02
2031.85 713.792 -1452.4 5.2681 54.7104 -8.13881 -1.36783 0.362841 2.61904 -1.36403 0.195509 2.6368 -1.35168 -0.424955 2.60969 -1.36119 -0.00762021 2.64403 -14.7437 17.5069 5.75695 -15.4826 30.0932 11.4499 -0.0 0.0 -0.0 -2.67351 23.2648 -0.983865 -11.8039 -12.4463 71.3885 1.44921 -35.6722 0.466319 -22.8109 -1.33485 2.57392 -1.14214 28.7232 5.02777 -0.0 0.0 -0.0 13.3223 26.5753 -26.3535 -10.8695 20.263 -61.7723 0.438653 12.2598 -0.0471102 82.6851 4.15155 8.75382 0.870483 -27.8788 -15.8555 0.0 0.0 0.0 -8.45629 42.709 -1.12626 -7.97642 0.245305 1.19858 17.9979 -11.5485 -2.61943 3.41134 -0.0 -0.0 -0.0 0.0 -0.0 1.92787 24.2586 5.9232 -11.7218 -0.302428 -1.77035 37.4589 7.26996 4.74337 -39.7069 0.0 0.0 0.0 0.0 0.0 
2033.52 710.253 -1449.65 4.95019 55.1816 -7.88035 -1.33155 0.297084 2.52854 -1.328 0.135638 2.54231 -1.31898 -0.459736 2.50409 -1.32773 -0.058625 2.54524 -16.9775 16.7659 6.67931 -17.8012 28.5157 12.6547 -0.0 0.0 -0.0 -2.67814 23.1727 -1.00763 -8.06999 -10.3141 71.1324 1.56747 -37.8259 0.53709 -24.0491 -1.4356 2.69647 -1.1422 28.0353 4.73627 -0.0 0.0 -0.0 13.4121 26.9358 -26.5162 -10.5794 19.0956 -61.2358 0.370341 10.3959 -0.0336903 82.1477 4.08838 8.72617 0.876424 -29.3691 -16.3261 0.0 0.0 0.0 -7.59487 44.8973 -1.19957 -7.2037 0.228874 1.08114 18.3331 -13.2331 -2.69185 2.71707 -0.0 -0.0 -0.0 0.0 -0.0 3.07629 24.0173 5.72298 -12.3945 -0.308722 -1.87337 38.3135 6.9339 4.81504 -40.1751 0.0 0.0 0.0 0.0 0.0 
2028.33 713.72 -1449.2 4.82055 55.2672 -7.59004 -1.22779 0.424327 2.25933 -1.22499 0.279739 2.28174 -1.2113 -0.25449 2.28469 -1.21857 0.10943 2.29621 -18.5598 15.7849 8.63018 -19.2255 25.8474 14.4177 -0.0 0.0 -0.0 -2.09545 23.2521 -0.189372 -7.04658 -10.3131 69.8823 1.70702 -40.2147 0.624968 -26.5221 -1.64467 2.93463 -1.22949 24.5351 2.74431 -0.0 0.0 -0.0 13.4279 26.7186 -26.5803 -11.9789 18.6982 -60.5024 0.273888 7.72667 -0.0184958 82.3165 4.10819 8.73492 0.797386 -29.3381 -15.8734 0.0 0.0 0.0 -7.60927 47.2229 -1.45778 -7.36067 0.23234 1.10498 18.3772 -15.4602 -2.73945 0.0424708 -0.0 -0.0 -0.0 0.0 -0.0 2.95623 23.9375 6.00285 -12.6408 -0.310724 -1.9111 38.2716 7.39139 4.81962 -40.154 0.0 0.0 0.0 0.0 0.0 
2025.15 714.734 -1450.14 3.50372 55.9755 -5.9815 -1.11082 0.422187 2.05703 -1.10851 0.290466 2.07971 -1.09589 -0.193174 2.09099 -1.10196 0.139408 2.09526 -16.6369 15.0582 7.05404 -17.175 24.9596 12.1747 -0.0 0.0 -0.0 -1.56075 23.5908 0.599114 -6.31642 -9.89592 68.5696 1.82703 -42.1428 0.703994 -28.3017 -1.80143 3.10038 -1.24656 20.2924 0.775902 -0.0 0.0 -0.0 13.2803 26.092 -26.3148 -12.7886 18.4314 -60.3785 0.206933 5.85302 -0.0105788 81.5979 4.02401 8.69726 0.812054 -29.4484 -15.988 0.0 0.0 0.0 -7.12118 49.0214 -1.63387 -4.16571 0.14896 0.621816 19.6907 -18.2375 -2.97889 -2.90593 0.0 0.0 -0.0 0.0 -0.0 4.09849 23.9965 5.87715 -13.1822 -0.314555 -1.99409 37.2383 9.39494 4.76538 -40.1498 0.0 0.0 0.0 0.0 0.0 
2019.02 714.348 -1448.61 2.78995 56.4659 -5.04774 -1.00161 0.50812 1.90283 -0.999674 0.386031 1.9313 -0.984821 -0.0622939 1.9685 -0.990142 0.249315 1.95365 -18.4807 13.4863 7.80852 -18.9137 21.8269 12.6441 -0.0 0.0 -0.0 -0.661497 23.7283 1.84382 -5.52532 -8.77097 67.0955 1.89719 -43.2184 0.75156 -30.521 -2.00402 3.30017 -1.4701 17.2554 -1.93808 -0.0 0.0 -0.0 13.2501 26.0425 -26.2509 -14.2668 17.9671 -59.3894 0.233854 6.6081 -0.0135005 80.6659 3.91554 8.64686 0.640398 -29.4905 -15.042 0.0 0.0 0.0 -8.81727 50.322 -0.135005 -1.58159 0.0618835 0.234822 19.8034 -18.3938 -2.99802 -4.54561 0.0 0.0 -0.0 0.0 -0.0 4.40759 22.9876 5.50643 -12.3933 -0.308712 -1.87318 38.4353 11.0856 4.91438 -38.2818 0.0 0.0 0.0 0.0 0.0 
2014.46 715.84 -1450.78 1.0652 57.1111 -3.32707 -0.804832 0.607186 1.76078 -0.803242 0.493931 1.79583 -0.786166 0.0800501 1.86078 -0.790804 0.372871 1.8248 -17.6672 13.38 7.02057 -18.0965 21.912 11.7008 -0.0 0.0 -0.0 -0.0111608 23.7418 2.72964 -5.2026 -8.29026 65.6 2.0503 -45.4397 0.858569 -32.2593 -2.16804 3.45114 -1.32455 12.2711 -3.31295 -0.0 0.0 -0.0 13.4054 26.2196 -26.5897 -15.5956 17.6811 -58.8857 0.232347 6.5659 -0.0133277 79.9502 3.83281 8.60696 0.777422 -29.4426 -15.7923 0.0 0.0 0.0 -6.72526 49.9323 -1.16457 -0.853969 0.0342199 0.126583 20.1879 -23.7705 -3.20666 -5.59708 0.0 0.0 -0.0 0.0 -0.0 4.8897 22.4785 5.20529 -12.1349 -0.306437 -1.8336 34.6239 10.5207 4.53934 -38.7879 0.0 0.0 0.0 0.0 0.0 
2009.56 715.619 -1452.87 -0.656579 58.7886 -1.39944 -0.515658 0.527857 1.61449 -0.514308 0.424067 1.6448 -0.500942 0.0541359 1.69771 -0.50482 0.32154 1.66787 -16.8318 12.457 6.49 -17.1577 20.2958 10.6649 -0.0 0.0 -0.0 0.617636 23.5539 3.56775 -4.01093 -8.01964 64.6622 2.11841 -46.375 0.907486 -33.81 -2.31819 3.58158 -1.71431 10.9519 -6.40525 -0.0 0.0 -0.0 13.5048 26.1658 -26.8271 -16.7635 16.7034 -58.7711 0.201859 5.71046 -0.0100677 79.1361 3.7393 8.56032 0.642651 -29.1307 -14.9452 0.0 0.0 0.0 -5.79147 51.0737 -1.50119 1.47916 -0.0637304 -0.218026 21.9011 -25.4546 -3.50742 -5.31894 0.0 0.0 -0.0 0.0 -0.0 5.25504 20.9121 5.22159 -11.8316 -0.303538 -1.78715 37.2657 13.5452 4.87232 -35.1023 0.0 0.0 0.0 0.0 0.0 
2007.28 717.488 -1455.07 -1.24919 59.7863 -0.744829 -0.437949 0.499197 1.62404 -0.436568 0.394858 1.6525 -0.42403 0.0262172 1.69881 -0.427937 0.294145 1.67336 -15.3367 12.0625 6.04916 -15.5818 19.5602 9.81798 -0.0 0.0 -0.0 0.819321 23.5654 3.8443 -4.38636 -9.42026 63.9385 2.29127 -48.612 1.03495 -35.6978 -2.50568 3.73486 -1.74762 6.75417 -8.60239 -0.0 0.0 -0.0 13.4753 25.9994 -26.7787 -17.2936 16.127 -58.907 0.192333 5.44263 -0.00914188 78.5721 3.67493 8.52724 0.868204 -29.4191 -16.2944 0.0 0.0 0.0 -5.02734 51.1968 -2.23632 1.59164 -0.0688073 -0.234538 21.3752 -27.3486 -3.509 -5.5368 0.0 0.0 -0.0 0.0 -0.0 5.40626 19.5214 5.15414 -12.3122 -0.308017 -1.86077 35.9979 13.7081 4.75583 -32.768 0.0 0.0 0.0 0.0 0.0 
2002.28 717.719 -1458.83 -1.96152 60.7544 -0.0911724 -0.312869 0.465454 1.62486 -0.311473 0.361131 1.65117 -0.299994 -0.00276968 1.69019 -0.303884 0.264161 1.66943 -15.1462 12.0129 5.30873 -15.4206 19.871 9.08004 -0.0 0.0 -0.0 1.08951 23.5992 4.21618 -3.88455 -8.2795 63.5208 2.26809 -48.323 1.0176 -36.0088 -2.53705 3.75953 -1.90538 6.79215 -9.626 -0.0 0.0 -0.0 13.6496 26.2881 -27.1491 -17.6046 15.8037 -58.8795 0.184165 5.2128 -0.00838355 78.1158 3.62307 8.50001 0.718359 -28.9295 -15.3083 0.0 0.0 0.0 -4.79572 51.2263 -2.22034 2.67664 -0.119442 -0.393308 22.5473 -30.4206 -3.81949 -4.94708 0.0 0.0 -0.0 0.0 -0.0 5.50546 18.9667 5.05655 -12.3599 -0.308428 -1.86806 35.6724 14.5018 4.74727 -32.6729 0.0 0.0 0.0 0.0 0.0 
1997.43 717.593 -1462.87 -2.72418 61.5117 0.686642 -0.163374 0.404357 1.56908 -0.162055 0.303706 1.59163 -0.152712 -0.0418871 1.61979 -0.15631 0.214421 1.60609 -14.3063 11.8117 4.53906 -14.5655 19.8278 8.13698 -0.0 0.0 -0.0 1.14808 23.7105 4.30456 -4.18663 -8.81752 63.3514 2.34453 -49.2637 1.0751 -36.6953 -2.60676 3.81335 -1.94683 5.38428 -10.5732 -0.0 0.0 -0.0 13.7239 26.4474 -27.3025 -17.5429 15.6543 -59.1405 0.177424 5.02299 -0.00778211 77.737 3.5802 8.47709 0.703612 -28.9682 -15.2372 0.0 0.0 0.0 -4.65831 51.3202 -2.36623 2.91905 -0.131166 -0.42865 22.714 -31.4534 -3.89753 -4.84519 0.0 0.0 -0.0 0.0 -0.0 5.49565 18.4431 5.08906 -12.4328 -0.309045 -1.87924 35.0324 14.6599 4.68864 -31.9858 0.0 0.0 0.0 0.0 0.0 
1990.93 715.12 -1463.58 -2.40504 62.3561 0.00929172 -0.0860811 0.4623 1.52025 -0.0848691 0.364637 1.54658 -0.0741578 0.0294367 1.5887 -0.077571 0.279942 1.56413 -16.3076 10.8639 3.76164 -16.6282 18.7011 7.44176 -0.0 0.0 -0.0 0.921931 24.3263 4.04651 -5.52888 -9.96395 63.3727 2.54548 -51.5754 1.23001 -37.3945 -2.67842 3.86732 -1.58869 1.57828 -9.94853 -0.0 0.0 -0.0 13.3623 26.9934 -26.3936 -16.8802 15.9092 -60.3437 0.197446 5.58641 -0.00963323 76.8792 3.48367 8.42416 0.60562 -29.304 -14.7915 0.0 0.0 0.0 -3.96687 49.5953 -3.02051 1.56663 -0.0676755 -0.230868 21.7674 -30.4596 -3.70703 -4.65898 0.0 0.0 -0.0 0.0 -0.0 4.91803 18.1287 6.05338 -13.7635 -0.317794 -2.08321 35.2086 15.917 4.74533 -31.709 0.0 0.0 0.0 0.0 0.0 
